<svg width="60" height="69" viewBox="0 0 60 69" fill="none" xmlns="http://www.w3.org/2000/svg">
<path d="M30.24 69C43.44 58.0275 59.52 43.4679 58.08 25.7431C56.64 8.01839 43.68 6.55655e-05 30.24 4.24417e-10C16.8 -6.55647e-05 3.11999 7.59637 1.91999 25.7431C0.719995 43.8899 18.48 59.9266 30.24 69Z" fill="#FF0000"/>
<path d="M25.4301 50.1832L27.3648 41.4739C27.4272 41.193 27.4584 41.0526 27.3834 40.959C27.3083 40.8655 27.1645 40.8655 26.8767 40.8655H20.9341C20.5229 40.8655 20.3173 40.8655 20.2466 40.7335C20.176 40.6014 20.29 40.4303 20.518 40.0882L26.982 30.3889C27.21 30.0468 27.324 29.8757 27.2534 29.7437C27.1827 29.6116 26.9771 29.6116 26.5659 29.6116H18.2499C17.9107 29.6116 17.7412 29.6116 17.6669 29.5003C17.5927 29.389 17.6579 29.2325 17.7883 28.9194L24.8718 11.9133C24.9339 11.7641 24.965 11.6895 25.028 11.6475C25.091 11.6055 25.1718 11.6055 25.3334 11.6055H39.0659C39.4771 11.6055 39.6827 11.6055 39.7534 11.7375C39.824 11.8696 39.71 12.0406 39.482 12.3828L33.018 22.0821C32.79 22.4242 32.676 22.5953 32.7466 22.7273C32.8173 22.8594 33.0229 22.8594 33.4341 22.8594H38.9327C39.3944 22.8594 39.6253 22.8594 39.6927 23.0033C39.7602 23.1472 39.6124 23.3246 39.3169 23.6794L33.1831 31.0424C32.8876 31.3971 32.7398 31.5745 32.8073 31.7185C32.8747 31.8624 33.1056 31.8624 33.5673 31.8624H41.4073C41.8786 31.8624 42.1142 31.8624 42.181 32.0084C42.2478 32.1544 42.0937 32.3327 41.7857 32.6893L26.2966 50.6185C25.7795 51.217 25.5209 51.5163 25.3469 51.4288C25.1728 51.3414 25.2586 50.9553 25.4301 50.1832Z" fill="white"/>
</svg>
